<?xml version="1.0" encoding="utf-8"?>
<!-- Generator: Adobe Illustrator 23.0.6, SVG Export Plug-In . SVG Version: 6.00 Build 0)  -->
<svg version="1.1" id="Layer_1" xmlns="http://www.w3.org/2000/svg" xmlns:xlink="http://www.w3.org/1999/xlink" x="0px" y="0px"
	 viewBox="0 0 1000 1000" style="enable-background:new 0 0 1000 1000;" xml:space="preserve">
<g>
	<path d="M287.89,790.4H33.71V209.6h252.08c77.67,0,140.85,63.19,140.85,140.85c0,62.51-40.93,115.65-97.41,134
		c65.89,18.15,114.42,78.61,114.42,150.19C443.66,720.53,373.78,790.4,287.89,790.4z M46.13,777.98h241.77
		c79.04,0,143.34-64.3,143.34-143.34S366.93,491.3,287.89,491.3H46.13V777.98z M46.13,478.88h239.66
		c70.82,0,128.43-57.61,128.43-128.43c0-70.82-57.61-128.43-128.43-128.43H46.13V478.88z"/>
	<path d="M751.03,790.4c-118.7,0-215.26-96.57-215.26-215.26c0-118.7,96.57-215.26,215.26-215.26s215.26,96.57,215.26,215.26v6.21
		H548.28c3.29,108.99,92.98,196.63,202.75,196.63c61.85,0,119.55-27.7,158.3-76l9.69,7.77C877.9,761.01,816.67,790.4,751.03,790.4z
		 M548.28,568.93h405.5C950.49,459.94,860.8,372.3,751.03,372.3S551.57,459.94,548.28,568.93z"/>
	<rect x="570.52" y="231.3" width="343.54" height="12.42"/>
</g>
</svg>
