<?xml version="1.0" encoding="utf-8"?>
<!-- Generator: Adobe Illustrator 23.0.6, SVG Export Plug-In . SVG Version: 6.00 Build 0)  -->
<svg version="1.1" id="Layer_1" xmlns="http://www.w3.org/2000/svg" xmlns:xlink="http://www.w3.org/1999/xlink" x="0px" y="0px"
	 viewBox="0 0 1000 1000" style="enable-background:new 0 0 1000 1000;" xml:space="preserve">
<path d="M631.89,955.98c-7.01,0-12.86-1.8-17.49-5.39c-10.78-8.36-10-22.89-9.97-23.5l-0.01-97.43c0-60.25-6.46-88.98-25.62-113.88
	l-6.77-8.8l11-1.49c171.62-23.27,192.25-110.68,198.11-190.77c4.65-63.53-10.79-112.17-45.87-144.55l-3.31-3.06l1.75-4.15
	c7.94-18.86,18.07-66.2,1.54-113.78c-19.91,2.47-82.45,19.52-120.51,48.51l-3.02,2.3l-3.47-1.54
	c-51.37-22.72-176.15-22.19-226.32,0.96l-4.23,1.95l-3.17-3.41c-24.48-26.37-92.03-54.56-114.03-48.34
	c-22.95,65.68,0.41,112.42,0.65,112.89l2.48,4.82l-4.33,3.27c-0.51,0.39-52.91,41.4-44.37,139.05
	c9.26,105.94,46.3,176,202.14,197.85l14.03,1.97l-10.72,9.26c-19.89,17.17-26.73,60.56-26.8,60.99l-0.51,3.33l-3.03,1.48
	c-0.84,0.41-20.94,10.07-47.26,11.5c-35.5,1.84-65.02-12.08-85.54-40.46c-38.06-51.72-67.26-58.05-81.27-57.25
	c-2.67,0.16-5.62,0.97-5.91,2.78c-0.35,2.13,1.93,6.41,7.92,8.8c16.52,6.61,41.92,32.11,56.44,66.35
	c11.42,26.92,35.17,82.93,149.35,56.15l8.44-1.98l-0.56,8.65c-1.95,30.28-0.01,85.66,0.01,86.21l0.01,0.35l-0.03,0.35
	c-0.83,11.41-5.11,19.61-12.72,24.36c-14.22,8.86-33.8,1.41-35.99,0.52C157.68,884.8,33.06,707.99,33.06,510.97
	C33.06,253.49,242.53,44.02,500,44.02s466.94,209.47,466.94,466.94c0,96.37-29.11,188.88-84.19,267.54
	c-53.84,76.89-128.44,135.2-215.73,168.64l-16.24,5.41C643.77,954.84,637.47,955.98,631.89,955.98z M595.18,716.7
	c16.38,25.51,22.1,56.08,22.1,112.95v97.83c-0.01,0.44-0.36,8.85,5.06,12.99c4.7,3.59,13.15,3.54,24.46-0.13l15.9-5.29
	c84.62-32.43,157.16-89.14,209.53-163.92c53.56-76.48,81.87-166.44,81.87-260.16c0-250.39-203.7-454.09-454.09-454.09
	S45.91,260.58,45.91,510.97c0,191.6,121.2,363.54,301.58,427.84c4.51,1.79,17.27,5.2,24.65,0.57c3.91-2.45,6.09-7.05,6.65-14.03
	c-0.17-4.8-1.61-48.27-0.41-78.62c-117.63,24.5-144.27-38.31-155.8-65.49c-13.99-32.97-37.3-54.6-49.38-59.44
	c-10.8-4.32-17.31-13.69-15.83-22.79c0.99-6.1,6.2-12.87,17.84-13.55c20.29-1.26,52.8,8.68,92.41,62.5
	c38.34,53.02,99.82,32,113.88,26.25c1.84-9.74,8-37.1,21.87-55.82c-153.77-25-191.94-101.24-201.24-207.66
	c-7.88-90.14,32.32-134.97,45.48-147.07c-5.94-14.43-20.54-60.24,1.8-121.25l0.9-2.46l2.36-1.13
	c26.43-12.64,99.86,20.33,128.03,47.08c53.78-21.97,174.98-22.4,229.25-0.7c43.64-31.62,113.81-49.22,129.48-49.22
	c0.1,0,0.19,0,0.28,0l4.35,0.06l1.56,4.07c19.02,49.66,10.07,100.2,1.55,123.63c35.85,35.11,51.58,86.19,46.78,151.9
	C787.86,599.11,766.75,690.03,595.18,716.7z"/>
</svg>
