<?xml version="1.0" encoding="utf-8"?>
<!-- Generator: Adobe Illustrator 23.0.6, SVG Export Plug-In . SVG Version: 6.00 Build 0)  -->
<svg version="1.1" id="Layer_1" xmlns="http://www.w3.org/2000/svg" xmlns:xlink="http://www.w3.org/1999/xlink" x="0px" y="0px"
	 viewBox="0 0 1000 1000" style="enable-background:new 0 0 1000 1000;" xml:space="preserve">
<g>
	<path d="M724.91,967.26H275.09c-131.17,0-237.88-106.71-237.88-237.88V270.62c0-131.17,106.71-237.88,237.88-237.88h449.83
		c131.17,0,237.88,106.71,237.88,237.88v458.76C962.8,860.55,856.08,967.26,724.91,967.26z M275.09,46.86
		c-123.38,0-223.76,100.38-223.76,223.76v458.76c0,123.38,100.38,223.76,223.76,223.76h449.83c123.38,0,223.76-100.38,223.76-223.76
		V270.62c0-123.38-100.38-223.76-223.76-223.76H275.09z"/>
	<path d="M500,738.25c-131.37,0-238.25-106.88-238.25-238.25c0-131.37,106.88-238.25,238.25-238.25S738.25,368.63,738.25,500
		C738.25,631.37,631.37,738.25,500,738.25z M500,275.87c-123.58,0-224.13,100.55-224.13,224.13
		c0,123.58,100.55,224.13,224.13,224.13S724.13,623.58,724.13,500C724.13,376.42,623.58,275.87,500,275.87z"/>
	<path d="M769.54,275.87c-31.45,0-57.04-25.59-57.04-57.04c0-31.45,25.59-57.04,57.04-57.04c31.45,0,57.04,25.59,57.04,57.04
		C826.58,250.28,800.99,275.87,769.54,275.87z M769.54,175.91c-23.66,0-42.92,19.25-42.92,42.92c0,23.67,19.25,42.92,42.92,42.92
		c23.66,0,42.92-19.25,42.92-42.92C812.46,195.17,793.2,175.91,769.54,175.91z"/>
</g>
</svg>
