<?xml version="1.0" encoding="utf-8"?>
<!-- Generator: Adobe Illustrator 23.0.6, SVG Export Plug-In . SVG Version: 6.00 Build 0)  -->
<svg version="1.1" id="Layer_1" xmlns="http://www.w3.org/2000/svg" xmlns:xlink="http://www.w3.org/1999/xlink" x="0px" y="0px"
	 viewBox="0 0 1000 1000" style="enable-background:new 0 0 1000 1000;" xml:space="preserve">
<g>
	<path d="M260.27,949.44H64.75V345.66h195.53V949.44z M76.46,937.72h172.09V357.38H76.46V937.72z"/>
	<path d="M948.38,949.44H752.86V621.23c0-42.79-11.32-77.35-31.87-97.34c-14.72-14.31-34-21.18-57.24-20.57
		c-84.67,4.46-101.66,71.3-104.23,110.74l0.01,335.39h-194.6V345.66h194.6v61.01c55.25-67.25,125.95-75.33,188.53-73.94
		c78.13,1.75,128.12,29.66,167.14,93.31c24.59,40.13,31.15,94.95,32.76,127.44h0.25l0.18,5.86v6.55c0.11,6.6,0,10.44,0,10.44
		L948.38,949.44z M764.58,937.72h172.09V576.15c0-0.26,0.11-3.9,0-10.11l-0.18-6.49c-1.09-30.29-6.6-87.11-31.29-127.38
		c-37.16-60.64-82.77-86.05-157.4-87.72c-90.28-2.01-146.83,22.79-189.34,82.96l-10.65,15.07v-85.11H376.65v580.34h171.16V613.67
		c1.31-20.23,6.31-49.07,22.81-73.8c19.9-29.84,51.07-46.08,92.66-48.27c26.7-0.69,48.81,7.28,65.88,23.88
		c22.84,22.21,35.42,59.76,35.42,105.74V937.72z"/>
	<path d="M164.9,277.23c-62.49,0-113.33-50.84-113.33-113.33c0-62.5,50.84-113.34,113.33-113.34c62.5,0,113.34,50.84,113.34,113.34
		C278.24,226.39,227.4,277.23,164.9,277.23z M164.9,62.28c-56.03,0-101.61,45.58-101.61,101.62c0,56.03,45.58,101.61,101.61,101.61
		c56.03,0,101.62-45.58,101.62-101.61C266.52,107.87,220.94,62.28,164.9,62.28z"/>
</g>
</svg>
