<?xml version="1.0" encoding="utf-8"?>
<!-- Generator: Adobe Illustrator 23.0.6, SVG Export Plug-In . SVG Version: 6.00 Build 0)  -->
<svg version="1.1" id="Layer_1" xmlns="http://www.w3.org/2000/svg" xmlns:xlink="http://www.w3.org/1999/xlink" x="0px" y="0px"
	 viewBox="0 0 1000 1000" style="enable-background:new 0 0 1000 1000;" xml:space="preserve">
<path d="M500,952.81c-45.79,0-90.97-6.79-134.28-20.19l-8.02-2.48l5.6-8.63c32.62-42.4,47.55-87.42,81.99-220.26l3.42-13.2
	l7.92,11.09c20.33,28.45,47.57,44.81,80.97,48.62c55.66,6.31,117.84-23.85,154.85-56.56c61.16-54.05,106.99-178.5,74.37-285.3
	C730.31,286.32,617.5,218.29,472.5,228.38c-75.58,5.26-143.1,38.22-190.13,92.81c-43.48,50.48-64.61,113.8-59.49,178.31
	c5.53,69.64,31.75,109.6,52.78,130.85c15.22,15.38,29.77,23.35,37.64,26.9l15.56-54.79c-11.96-11.97-52.23-60.83-31.32-159.21
	c10.49-49.39,38.93-90.23,82.23-118.11c47.74-30.74,107.16-41.3,163.03-28.97c108.18,23.87,162.96,111.16,142.97,227.79
	c-22.85,133.25-89.48,163.46-141.36,165.33c-25.41,0.9-46.91-9.2-60.62-28.49c-14.73-20.72-18.42-49.07-9.42-72.23
	c15.96-41.04,29.02-90.32,33.27-125.53c4.56-37.81-17.74-61.7-42.12-65.77c-28.07-4.69-56.91,16.78-73.48,54.66
	c-17.64,40.32-4.27,98.12,6.1,111.73l1.86,2.45l-0.75,2.98c-13.57,53.61-53.85,219.45-54.25,221.11
	c-0.07,0.28-5.95,24.35-4.63,55.24c1.35,31.75,4.75,69.38,4.79,69.75c0.23,2.63-0.98,5.09-3.15,6.44c-1.37,0.84-4.18,1.88-8.04-0.25
	c-83.52-32.94-154.82-89.47-206.21-163.53C75.04,681.93,47.19,592.77,47.19,500C47.19,250.32,250.32,47.19,500,47.19
	S952.81,250.32,952.81,500S749.68,952.81,500,952.81z M378.06,923.02c39.47,11.32,80.45,17.06,121.94,17.06
	c242.66,0,440.08-197.42,440.08-440.08S742.66,59.92,500,59.92S59.92,257.34,59.92,500c0,90.16,27.07,176.81,78.27,250.6
	c48.51,69.91,115.28,123.75,193.44,156.12c-1.11-13.38-3.05-38.47-4-60.73c-1.39-32.83,4.73-57.78,4.99-58.82
	c0.39-1.6,39.36-162.1,53.58-218.46c-11.29-18.71-25.45-77.04-5.84-121.87c18.98-43.4,53.2-67.78,87.24-62.11
	c30.35,5.06,58.19,34.11,52.67,79.85c-5.3,43.91-21.06,95.23-34.04,128.62c-7.38,18.97-4.19,43.18,7.93,60.23
	c7.89,11.09,22.86,24.03,49.79,23.14c67.63-2.45,112.33-55.96,129.27-154.76c19.01-110.9-30.77-190.6-133.16-213.2
	c-51.8-11.44-109.14-1.25-153.4,27.24c-40.38,26-66.9,64.06-76.67,110.05c-22.29,104.91,29.59,149.22,30.12,149.66l3.2,2.65
	l-21.45,75.52l-6.2-1.88c-3.84-1.16-94.27-30.1-105.47-171.35c-5.39-67.92,16.82-134.55,62.54-187.62
	c49.26-57.19,119.89-91.7,198.88-97.2C622.93,205.12,740.66,276.63,779,402.19c34.55,113.14-12.58,240.65-78.12,298.56
	c-39.13,34.58-105.2,66.45-164.72,59.66c-32.85-3.74-60.31-18.36-81.79-43.49C425.21,828.79,409.44,879.59,378.06,923.02z"/>
</svg>
