<?xml version="1.0" encoding="utf-8"?>
<!-- Generator: Adobe Illustrator 23.0.6, SVG Export Plug-In . SVG Version: 6.00 Build 0)  -->
<svg version="1.1" id="Layer_1" xmlns="http://www.w3.org/2000/svg" xmlns:xlink="http://www.w3.org/1999/xlink" x="0px" y="0px"
	 viewBox="0 0 1000 1000" style="enable-background:new 0 0 1000 1000;" xml:space="preserve">
<path d="M336.53,855.97c-103.11,0-199.19-27.5-267.25-77.13l-23.41-17.07l28.39,5.75c71.4,14.47,190.98-23.45,241.1-64.83
	c-108.98-17.57-144.09-93.06-154.27-125.66l-3.34-10.69l10.89,2.66c0.38,0.09,29.41,7.05,53.82,3.57
	c-39.69-13.58-118.72-55.76-124.74-177.07l-0.77-15.47l11.38,10.51c0.21,0.19,19.46,17.3,56.5,21.31
	c-32.13-29.17-98.8-108.9-41.71-231.36l4.53-9.72l6.32,8.67c1.24,1.7,125.45,168.52,352.28,181.13
	c-4.25-27.22-10.38-115.77,73.07-182.35c36.18-28.87,78.43-39.51,125.53-31.65c51.84,8.65,97.09,39.11,111.56,56.27
	c17.02-4.63,82.63-23.39,103.89-42.95l14.36-13.21l-3.87,19.13c-0.44,2.18-10.18,47.84-56.39,86.22
	c22.46-3.75,54.39-10.8,70.66-22.31l29.07-20.56l-20.2,29.32c-1.73,2.52-42.07,60.66-86.23,90.67
	c2.21,37.66,5.72,245.91-169.52,404.82c-79.17,71.8-189.62,114.85-310.98,121.22C356.93,855.7,346.69,855.97,336.53,855.97z
	 M98.49,783.1c71.04,43.22,167.08,64.71,268.05,59.42C485,836.3,592.66,794.4,669.68,724.56
	c177.88-161.31,166.98-374.43,165.15-398.2l-0.29-3.76l3.17-2.04c27.26-17.61,54.07-48.24,70.27-68.64
	c-32.55,11.62-74.96,15.91-77.25,16.13l-26.8,2.63l22.82-14.29c38.87-24.35,57.47-56.39,65.73-75.83
	c-34.65,19.51-94.04,34.85-97,35.61l-4.45,1.14l-2.46-3.87c-7.2-11.32-50.65-45.19-105.81-54.4c-43.44-7.24-82.31,2.53-115.55,29.06
	c-92.7,73.97-68.21,173.37-67.12,177.56l2.14,8.25l-8.51-0.32c-208.01-8.14-333.88-143.08-363.31-178.34
	c-24.41,57.93-22.88,111.75,4.6,160.1c21.62,38.05,51.84,58.14,52.14,58.34l17.12,11.22l-20.46,0.4
	c-35.24,0.68-59.34-9.57-72.46-17.29c13.25,131.92,121.79,155.5,134.5,157.81l16.98,3.09l-14.95,8.62
	c-20.98,12.1-53.94,8.84-71.09,5.98c13.73,35.13,52.1,97.17,153.44,108.43l12.7,1.41l-8.82,9.25
	C293.26,745.41,180.12,786.89,98.49,783.1z"/>
</svg>
