<?xml version="1.0" encoding="utf-8"?>
<!-- Generator: Adobe Illustrator 23.0.6, SVG Export Plug-In . SVG Version: 6.00 Build 0)  -->
<svg version="1.1" id="Layer_1" xmlns="http://www.w3.org/2000/svg" xmlns:xlink="http://www.w3.org/1999/xlink" x="0px" y="0px"
	 viewBox="0 0 1000 1000" style="enable-background:new 0 0 1000 1000;" xml:space="preserve">
<path d="M771.85,841.36h-543.7c-107.47,0-194.9-87.43-194.9-194.9V353.54c0-107.47,87.43-194.9,194.9-194.9h543.7
	c107.47,0,194.9,87.43,194.9,194.9v292.91C966.75,753.93,879.32,841.36,771.85,841.36z M228.15,169.92
	c-101.25,0-183.63,82.37-183.63,183.63v292.91c0,101.25,82.37,183.63,183.63,183.63h543.7c101.25,0,183.63-82.38,183.63-183.63
	V353.54c0-101.25-82.38-183.63-183.63-183.63H228.15z"/>
<path d="M354.36,671.01V328.99L645.64,500L354.36,671.01z M365.63,348.69v302.62L623.37,500L365.63,348.69z"/>
</svg>
